<svg xmlns="http://www.w3.org/2000/svg" width="350" height="376" viewBox="0 0 350 376" fill="none">
  <g>
  
  <path d="M18.4041 57.8271C12.0504 57.8271 5.87157 54.5326 2.46646 48.639C-2.60998 39.8528 0.402631 28.6179 9.1953 23.5452L45.9612 2.3341C54.7539 -2.73868 65.997 0.271904 71.0733 9.05801C76.1498 17.8442 73.1372 29.079 64.3445 34.1518L27.5786 55.363C24.6838 57.033 21.5226 57.8271 18.4041 57.8271Z" fill="url(#paint0_linear_5_136)"/>
  <path d="M294.137 177.33L36.7693 325.812L36.7695 262.177L238.678 145.624L202.095 124.518L9.1944 235.663C3.50656 238.944 0.00271012 245.008 0.00271012 251.571L0.00246501 357.63C0.00246501 364.193 3.50631 370.257 9.19416 373.539C12.0384 375.18 15.2117 376 18.386 376C21.5594 376 24.734 375.179 27.5775 373.539L340.096 193.239C345.784 189.958 349.288 183.893 349.288 177.33C349.288 170.768 345.784 164.703 340.096 161.422L248.491 108.572C248.295 108.454 248.097 108.34 247.897 108.23L156.262 55.3629C150.574 52.0816 143.567 52.0816 137.879 55.3629L9.19476 129.604C0.402145 134.677 -2.61046 145.911 2.46597 154.698C5.87109 160.591 12.05 163.886 18.4037 163.886C21.5221 163.885 24.6834 163.092 27.5781 161.422L147.07 92.4835L294.137 177.33Z" fill="url(#paint1_linear_5_136)"/>
  <path d="M294.137 177.33L36.7693 325.812L36.7695 262.177L238.678 145.624L202.095 124.518L9.1944 235.663C3.50656 238.944 0.00271012 245.008 0.00271012 251.571L0.00246501 357.63C0.00246501 364.193 3.50631 370.257 9.19416 373.539C12.0384 375.18 15.2117 376 18.386 376C21.5594 376 24.734 375.179 27.5775 373.539L340.096 193.239C345.784 189.958 349.288 183.893 349.288 177.33C349.288 170.768 345.784 164.703 340.096 161.422L248.491 108.572C248.295 108.454 248.097 108.34 247.897 108.23L156.262 55.3629C150.574 52.0816 143.567 52.0816 137.879 55.3629L9.19476 129.604C0.402145 134.677 -2.61046 145.911 2.46597 154.698C5.87109 160.591 12.05 163.886 18.4037 163.886C21.5221 163.885 24.6834 163.092 27.5781 161.422L147.07 92.4835L294.137 177.33Z" fill="url(#paint2_radial_5_136)"/>
  <path d="M294.137 177.33L36.7693 325.812L36.7695 262.177L48.411 255.457L27.576 225.071L9.1944 235.663C3.50656 238.944 0.00271015 245.008 0.00271015 251.571L0.00246504 357.63C0.00246504 364.193 3.50632 370.257 9.19416 373.539C12.0384 375.18 15.2117 376 18.386 376C21.5594 376 24.734 375.179 27.5775 373.539L340.096 193.239C345.784 189.958 349.288 183.893 349.288 177.33C349.288 170.768 345.784 164.703 340.096 161.422L248.491 108.572C248.295 108.454 248.097 108.34 247.897 108.23L156.262 55.3629C150.574 52.0816 143.567 52.0816 137.879 55.3629L9.19476 129.604C0.402145 134.677 -2.61046 145.911 2.46597 154.698C5.87109 160.591 12.05 163.886 18.4037 163.886C21.5221 163.885 24.6834 163.092 27.5781 161.422L147.07 92.4835L294.137 177.33Z" fill="url(#paint3_linear_5_136)"/>
  </g>
  <defs>
  <linearGradient id="paint0_linear_5_136" x1="10.0661" y1="83.9204" x2="68.1129" y2="-0.130065" gradientUnits="userSpaceOnUse">
  <stop offset="0.260417" stop-color="#FF670D"/>
  <stop offset="1" stop-color="#FF5317"/>
  </linearGradient>
  <linearGradient id="paint1_linear_5_136" x1="51.7186" y1="214.43" x2="127.497" y2="82.364" gradientUnits="userSpaceOnUse">
  <stop stop-color="#FF7207"/>
  <stop offset="1" stop-color="#FF7208" stop-opacity="0"/>
  </linearGradient>
  <radialGradient id="paint2_radial_5_136" cx="0" cy="0" r="1" gradientUnits="userSpaceOnUse" gradientTransform="translate(34.6276 229.717) rotate(2.72633) scale(31.6524 34.218)">
  <stop stop-color="#FF7307"/>
  <stop offset="1" stop-color="#FF7408" stop-opacity="0"/>
  </radialGradient>
  <linearGradient id="paint3_linear_5_136" x1="13.0546" y1="376" x2="349.288" y2="170.804" gradientUnits="userSpaceOnUse">
  <stop stop-color="#FF8000"/>
  <stop offset="1" stop-color="#FF4020"/>
  </linearGradient>
  <clipPath id="clip0_5_136">
  <rect width="1458" height="376" fill="white"/>
  </clipPath>
  </defs>
  </svg>