<svg xmlns="http://www.w3.org/2000/svg" fill="#fff" xmlns:xlink="http://www.w3.org/1999/xlink" version="1.1" width="512px" height="512px">
  <g>
    <path d="M 99.5,-0.5 C 149.833,-0.5 200.167,-0.5 250.5,-0.5C 250.5,170.167 250.5,340.833 250.5,511.5C 200.167,511.5 149.833,511.5 99.5,511.5C 43.8333,500.5 10.5,467.167 -0.5,411.5C -0.5,307.5 -0.5,203.5 -0.5,99.5C 10.5271,43.8063 43.8604,10.4729 99.5,-0.5 Z M 113.5,29.5 C 149.167,29.5 184.833,29.5 220.5,29.5C 220.5,180.167 220.5,330.833 220.5,481.5C 184.832,481.667 149.165,481.5 113.5,481C 80.8973,479.293 56.3973,464.459 40,436.5C 33.53,423.953 30.1967,410.62 30,396.5C 29.3333,302.5 29.3333,208.5 30,114.5C 31.8431,77.2815 49.6764,51.1149 83.5,36C 93.3262,32.3371 103.326,30.1704 113.5,29.5 Z" />
  </g>
  <g>
    <path d="M 280.5,-0.5 C 324.167,-0.5 367.833,-0.5 411.5,-0.5C 467.167,10.5 500.5,43.8333 511.5,99.5C 511.5,203.5 511.5,307.5 511.5,411.5C 500.503,467.163 467.17,500.497 411.5,511.5C 367.833,511.5 324.167,511.5 280.5,511.5C 280.5,340.833 280.5,170.167 280.5,-0.5 Z M 395.5,210.5 C 437.269,215.77 457.102,239.436 455,281.5C 447.242,312.213 427.575,328.88 396,331.5C 354.487,325.987 334.82,302.32 337,260.5C 344.743,229.915 364.243,213.248 395.5,210.5 Z" />
  </g>
  <g>
    <path d="M 113.5,89.5 C 150.864,86.4112 174.698,102.744 185,138.5C 188.572,175.887 172.405,199.72 136.5,210C 99.1134,213.572 75.2801,197.405 65,161.5C 61.546,124.029 77.7126,100.029 113.5,89.5 Z" />
  </g>
</svg>